<svg xmlns="http://www.w3.org/2000/svg" version="1.1" x="0" y="0" viewBox="0 0 194.5 176" enable-background="new 0 0 194.5 176" xml:space="preserve"><path fill="#1E1E1E" d="M181.2 79.9c-1.8-6.6-3.9-13-5.6-19.5 -2.4-9.3-1.7-22.5-7.9-30.3 -2.9-3.6-5.5-6.7-7.7-11 -2-3.9-3.9-8-7.2-11.1 -0.2 4.5 5.6 17.5 3 21 -1.5 2-5.3 0.6-7.1 0.2 -3.9-0.9-7.5-1.3-11.5-1.4 -4.3-0.1-9.5 2.2-13.6 1.4 -3.5-0.7-8.2-5.5-11.2-7.5C107 18 101.8 11.8 96.1 9.4c2.4 5.8 6.9 11.3 10.8 16.3 3.4 4.3 2.5 5.6-0.2 10.2 -2 3.4-3.4 6.9-4.6 10.6 -0.6 1.9-1 5.4-2.4 6.9 -1.5 1.6-5.5 1.6-7.8 2 -13.4 2.5-26.8 5.2-39.1 11.2 -12.7 6.2-26 17.7-29.5 31.9 -0.8 3.3-0.5 6.8-1.4 10.1 -0.2 0.8-0.4 1.6-0.6 2.3C12.5 116.1 4 123.1 4 133.8c-0.6 19.2 21.1 33.1 37.9 35.5 7.8 1.2 20.8 1.5 27.1-4.5 5.1-4.8-3.6-6.9-7.2-7.2 -7.2-1.2-14.4-0.3-21.7-1.2 -6-0.9-11.7-3-17.2-6.3 -4.8-3-10.8-7.5-10.2-14.1 0.4-5.1 3.6-9.7 7.2-13.8 0.4 7.3 2.7 14.7 7.3 20.5 4.6 5.7 15.3 5.6 22.1 5.6 3.1 0 10.8 0.8 12-3 0.8-2.4-1.9-4.7-2.7-6.6 2.7-0.5 5.8 2.3 8.5 2.9 4.7 1.1 9.9 2.3 14.8 2.8 6.6 0.7 14-0.6 20.4 0.3 -2.9 7.3 25.3 13.5 19.3 0 5.2 1.1 10.8 0.6 16.1 1 1.9 0.2 16.5 0.1 17-1.5 -0.7 2.3-5.1 2.7-3.8 6.3 1.2 3.4 6.6 3.4 9.6 3.2 4.9-0.2 9.6-0.2 14.6-0.4 4.5-0.2 9-0.1 11.3-4.3 2.4-4.5 3-11.6 3.4-16.6C191.4 114.9 185.7 96.5 181.2 79.9zM120.7 56.5c-13-3.6-6.5-25 5.6-21.1 3.4 1.1 5.3 4.6 6 7.9C134.2 51.4 129.6 58.9 120.7 56.5zM152.1 57.9c-13-3.6-6.5-25 5.6-21.1 3.4 1.1 5.2 4.7 6 7.9C165.5 52.8 161 60.4 152.1 57.9z"/></svg>