<?xml version="1.0" encoding="UTF-8" standalone="no"?>
<svg viewBox="0 0 454 495" width="454px" xmlns="http://www.w3.org/2000/svg" version="1.1" height="495px">
 <path d="m373.17 258.49c80.56-70.15 80.06-108.12 80.06-139.77-4.58-127.33-116.89-118.48-116.89-118.48 0 0.00197-100.38 0.00197-108.02 94.225 2.75 58.465 56.09 60.495 56.09 60.495s46.45-0.1 46.45-40.86c0-40.748-42.91-32.869-42.91-32.869s26.58 9.401 26.58 27.489c0 12.47-18.97 24.98-29.2 24.98s-27.93-8.44-27.93-29.94c0-59.653 69.28-59.936 76.96-59.936s76.65 6.201 78.03 77.366c0.47 24.02 0 49.77-38.68 89.51-135.38 113.54-146.45 191.72-146.45 191.72-1.03 0-12.1-78.18-147.48-191.72-38.679-39.74-39.147-65.49-38.679-89.51 1.387-71.165 70.349-77.366 78.029-77.366s76.97 0.283 76.97 59.936c0 21.5-17.7 29.94-27.93 29.94s-29.2-12.51-29.2-24.98c0-18.088 26.58-27.489 26.58-27.489s-42.92-7.879-42.92 32.869c0 40.76 46.46 40.86 46.46 40.86s53.33-2.03 56.08-60.495c-7.64-94.223-108.02-94.223-108.02-94.223 0-0.00003-112.3-8.8535-116.89 118.48 0.00008 31.65-0.49541 69.62 80.069 139.77 108.94 94.85 134.99 169.74 146.71 236.5 11.13-66.76 37.19-141.65 146.13-236.5z" fill="#1A1AFF"/>
</svg>
