<svg xmlns="http://www.w3.org/2000/svg" xmlns:xlink="http://www.w3.org/1999/xlink" viewBox="0 0 48 48" version="1.1" width="48" height="48">
<g id="surface1">
<path style=" fill:#37474F;" d="M 47 22 L 24 33.5 L 1 22 L 1 25.5 L 24 37 L 47 25.5 Z "/>
<path style=" fill:#FF9100;" d="M 38.09375 23.34375 L 41.601563 21.589844 C 38.253906 15.289063 31.628906 11 24 11 C 16.214844 11 9.488281 15.472656 6.210938 21.980469 C 9.695313 17.191406 15.324219 14.066406 21.699219 14.066406 C 28.660156 14.066406 34.738281 17.789063 38.09375 23.34375 Z "/>
<path style=" fill:#FF6E40;" d="M 32.484375 25.957031 L 36 24.195313 C 33.660156 19.910156 29.109375 17 23.882813 17 C 18.195313 17 13.3125 20.441406 11.199219 25.355469 C 13.566406 22.152344 17.351563 20.066406 21.628906 20.066406 C 26.171875 20.066406 30.160156 22.410156 32.484375 25.957031 Z "/>
<path style=" fill:#AD1457;" d="M 27.019531 28.65625 L 30.542969 26.890625 C 29.222656 24.601563 26.78125 23 23.957031 23 C 20.589844 23 17.761719 25.242188 16.746094 28.277344 C 18 26.949219 19.761719 26.109375 21.726563 26.109375 C 23.871094 26.109375 25.757813 27.113281 27.019531 28.65625 Z "/>
</g>
</svg>