<?xml version="1.0" encoding="UTF-8" standalone="no"?>
<!-- Created with Inkscape (http://www.inkscape.org/) -->

<svg
   xmlns:dc="http://purl.org/dc/elements/1.1/"
   xmlns:cc="http://creativecommons.org/ns#"
   xmlns:rdf="http://www.w3.org/1999/02/22-rdf-syntax-ns#"
   xmlns:svg="http://www.w3.org/2000/svg"
   xmlns="http://www.w3.org/2000/svg"
   xmlns:sodipodi="http://sodipodi.sourceforge.net/DTD/sodipodi-0.dtd"
   xmlns:inkscape="http://www.inkscape.org/namespaces/inkscape"
   width="900.60999"
   height="520"
   id="svg9839"
   version="1.1"
   inkscape:version="0.48.4 r9939"
   sodipodi:docname="Neues Dokument 3">
  <defs
     id="defs9841">
    <clipPath
       clipPathUnits="userSpaceOnUse"
       id="clipPath2830">
      <path
         inkscape:connector-curvature="0"
         d="m 44.472,30.612 12.29,0 0,6.977 -12.29,0 0,-6.977 z"
         id="path2832" />
    </clipPath>
  </defs>
  <sodipodi:namedview
     id="base"
     pagecolor="#ffffff"
     bordercolor="#666666"
     borderopacity="1.0"
     inkscape:pageopacity="0.0"
     inkscape:pageshadow="2"
     inkscape:zoom="1.5500001"
     inkscape:cx="450.30503"
     inkscape:cy="259.99999"
     inkscape:document-units="px"
     inkscape:current-layer="layer1"
     showgrid="false"
     fit-margin-top="0"
     fit-margin-left="0"
     fit-margin-right="0"
     fit-margin-bottom="0"
     inkscape:window-width="1680"
     inkscape:window-height="990"
     inkscape:window-x="-4"
     inkscape:window-y="-4"
     inkscape:window-maximized="1" />
  <metadata
     id="metadata9844">
    <rdf:RDF>
      <cc:Work
         rdf:about="">
        <dc:format>image/svg+xml</dc:format>
        <dc:type
           rdf:resource="http://purl.org/dc/dcmitype/StillImage" />
        <dc:title></dc:title>
      </cc:Work>
    </rdf:RDF>
  </metadata>
  <g
     inkscape:label="Ebene 1"
     inkscape:groupmode="layer"
     id="layer1"
     transform="translate(-412.32,-28.151345)">
    <g
       transform="matrix(71.664445,0,0,-71.664445,-2764.7425,2731.8717)"
       id="g2826">
      <g
         id="g2828"
         clip-path="url(#clipPath2830)">
        <g
           id="g2834"
           transform="translate(52.22,36.892)">
          <path
             inkscape:connector-curvature="0"
             d="m 0,0 -0.218,-2.949 -0.143,-0.132 -0.108,0 -0.005,10e-4 -0.082,0.084 0,10e-4 0.191,2.868 -0.038,0.051 -0.04,0 -0.045,-0.051 -0.192,-2.886 -0.114,-0.066 -0.022,-0.002 -0.171,0 -0.071,0.081 0,0.002 0.113,2.982 -0.039,0.053 -0.041,0 -0.043,-0.053 -0.114,-3 -0.112,-0.065 -0.172,0 -0.074,0.076 0,2.903 -0.042,0.051 -0.04,0 -0.042,-0.051 0,-2.921 -0.108,-0.058 -0.159,0 -0.113,0.063 -0.115,2.86 -0.043,0.05 -0.041,0 -0.039,-0.05 0.114,-2.846 -0.082,-0.077 -0.184,0 -0.113,0.06 -0.194,2.984 -0.044,0.052 -0.041,0 -0.038,-0.052 0.192,-2.969 -0.082,-0.075 -0.084,0 -0.143,0.133 -0.192,2.921 0.064,0.129 c 0.33,0.214 0.705,0.195 1.063,0.139 l 0.146,0.03 c 0.82,0.167 0.849,0.166 1.585,-0.059 L -0.101,0.147 0,0 m -0.224,-3.724 c 0,-0.092 -0.076,-0.167 -0.17,-0.167 l -2.386,0 c -0.093,0 -0.169,0.075 -0.169,0.167 l 0,0.227 c 0,0.092 0.076,0.167 0.169,0.167 l 2.386,0 c 0.094,0 0.17,-0.075 0.17,-0.167 l 0,-0.227 z M 0.18,0.4 -0.076,0.48 C -0.961,0.755 -0.978,0.755 -1.965,0.55 L -2.143,0.513 C -2.569,0.582 -3.015,0.605 -3.404,0.348 l -0.064,-0.128 0.231,-3.563 0,-0.678 0.143,-0.142 2.97,0 0.143,0.142 0,0.678 L 0.28,0.254 0.18,0.4"
             style="fill:#117d35;fill-opacity:1;fill-rule:evenodd;stroke:none"
             id="path2836" />
        </g>
        <g
           id="g2838"
           transform="translate(45.453,31.78)">
          <path
             inkscape:connector-curvature="0"
             d="m 0,0 -0.098,-0.175 c -0.053,0.048 -0.138,0.071 -0.255,0.071 -0.112,0 -0.203,-0.041 -0.274,-0.125 -0.071,-0.083 -0.107,-0.188 -0.107,-0.316 0,-0.128 0.034,-0.229 0.099,-0.304 0.066,-0.075 0.154,-0.112 0.265,-0.112 0.126,0 0.224,0.04 0.296,0.121 l 0.11,-0.171 c -0.097,-0.092 -0.239,-0.137 -0.426,-0.137 -0.187,0 -0.333,0.054 -0.436,0.164 -0.104,0.109 -0.156,0.259 -0.156,0.448 0,0.176 0.058,0.323 0.173,0.442 0.114,0.118 0.261,0.177 0.441,0.177 C -0.215,0.083 -0.092,0.056 0,0"
             style="fill:#181513;fill-opacity:1;fill-rule:nonzero;stroke:none"
             id="path2840" />
        </g>
      </g>
    </g>
    <g
       id="g2842"
       transform="matrix(71.664445,0,0,-71.664445,564.28594,535.21309)">
      <path
         inkscape:connector-curvature="0"
         d="m 0,0 0,0.536 -0.534,0 0,-0.536 -0.238,0 0,1.191 0.238,0 0,-0.468 0.534,0 0,0.468 0.234,0 0,-1.191"
         style="fill:#181513;fill-opacity:1;fill-rule:nonzero;stroke:none"
         id="path2844" />
    </g>
    <g
       id="g2846"
       transform="matrix(71.664445,0,0,-71.664445,617.89094,463.26198)">
      <path
         inkscape:connector-curvature="0"
         d="m 0,0 0,-0.279 0.43,0 0,-0.18 -0.43,0 0,-0.358 0.606,0 0,-0.187 -0.845,0 0,1.191 0.845,0 0,-0.187"
         style="fill:#181513;fill-opacity:1;fill-rule:nonzero;stroke:none"
         id="path2848" />
    </g>
    <g
       id="g2850"
       transform="matrix(71.664445,0,0,-71.664445,694.21358,463.26198)">
      <path
         inkscape:connector-curvature="0"
         d="m 0,0 0,-0.279 0.471,0 0,-0.18 -0.471,0 0,-0.545 -0.239,0 0,1.191 0.883,0 0,-0.187"
         style="fill:#181513;fill-opacity:1;fill-rule:nonzero;stroke:none"
         id="path2852" />
    </g>
    <g
       id="g2854"
       transform="matrix(71.664445,0,0,-71.664445,810.23831,535.21309)">
      <path
         inkscape:connector-curvature="0"
         d="m 0,0 -0.375,0.507 -0.15,-0.181 0,-0.326 -0.238,0 0,1.191 0.238,0 0,-0.569 0.457,0.569 0.271,0 L -0.218,0.671 0.284,0"
         style="fill:#181513;fill-opacity:1;fill-rule:nonzero;stroke:none"
         id="path2856" />
    </g>
    <g
       id="g2858"
       transform="matrix(71.664445,0,0,-71.664445,851.5887,491.85323)">
      <path
         inkscape:connector-curvature="0"
         d="m 0,0 c 0,-0.139 0.026,-0.247 0.079,-0.324 0.053,-0.076 0.13,-0.115 0.231,-0.115 0.119,0 0.21,0.039 0.272,0.113 C 0.644,-0.252 0.676,-0.143 0.676,0 0.676,0.279 0.56,0.419 0.329,0.419 0.223,0.419 0.141,0.381 0.085,0.306 0.028,0.23 0,0.128 0,0 m -0.248,0 c 0,0.169 0.053,0.313 0.157,0.43 0.105,0.117 0.245,0.176 0.42,0.176 0.192,0 0.34,-0.053 0.441,-0.159 C 0.872,0.341 0.923,0.192 0.923,0 0.923,-0.192 0.87,-0.344 0.764,-0.457 0.657,-0.569 0.506,-0.626 0.31,-0.626 c -0.18,0 -0.318,0.056 -0.414,0.168 C -0.2,-0.347 -0.248,-0.194 -0.248,0"
         style="fill:#181513;fill-opacity:1;fill-rule:nonzero;stroke:none"
         id="path2860" />
    </g>
    <g
       id="g2862"
       transform="matrix(71.664445,0,0,-71.664445,998.64414,454.37559)">
      <path
         inkscape:connector-curvature="0"
         d="m 0,0 -0.098,-0.175 c -0.053,0.048 -0.138,0.071 -0.255,0.071 -0.112,0 -0.203,-0.041 -0.274,-0.125 -0.071,-0.083 -0.107,-0.188 -0.107,-0.316 0,-0.128 0.034,-0.229 0.099,-0.304 0.066,-0.075 0.154,-0.112 0.265,-0.112 0.126,0 0.224,0.04 0.295,0.121 l 0.111,-0.171 c -0.097,-0.092 -0.239,-0.137 -0.426,-0.137 -0.187,0 -0.333,0.054 -0.436,0.164 -0.104,0.109 -0.156,0.259 -0.156,0.448 0,0.176 0.058,0.323 0.173,0.442 0.114,0.118 0.261,0.177 0.441,0.177 C -0.215,0.083 -0.092,0.056 0,0"
         style="fill:#181513;fill-opacity:1;fill-rule:nonzero;stroke:none"
         id="path2864" />
    </g>
    <g
       id="g2866"
       transform="matrix(71.664445,0,0,-71.664445,1070.3086,535.21309)">
      <path
         inkscape:connector-curvature="0"
         d="m 0,0 0,0.536 -0.534,0 0,-0.536 -0.238,0 0,1.191 0.238,0 0,-0.468 0.534,0 0,0.468 0.234,0 0,-1.191"
         style="fill:#181513;fill-opacity:1;fill-rule:nonzero;stroke:none"
         id="path2868" />
    </g>
    <g
       id="g2870"
       transform="matrix(71.664445,0,0,-71.664445,1108.3624,527.61666)">
      <path
         inkscape:connector-curvature="0"
         d="M 0,0 0.048,0.103 0.164,0.146 0.281,0.103 0.329,0 0.281,-0.104 0.164,-0.147 0.048,-0.104"
         style="fill:#181513;fill-opacity:1;fill-rule:nonzero;stroke:none"
         id="path2872" />
    </g>
    <g
       id="g2874"
       transform="matrix(71.664445,0,0,-71.664445,1173.1471,463.18745)">
      <path
         inkscape:connector-curvature="0"
         d="m 0,0 0,-0.814 0.124,-0.004 c 0.121,0 0.215,0.038 0.283,0.116 0.068,0.077 0.102,0.186 0.102,0.325 0,0.255 -0.133,0.383 -0.4,0.383 L 0,0 m 0.059,-1.005 -0.298,0 0,1.189 c 0.19,0.006 0.31,0.009 0.359,0.009 0.195,0 0.35,-0.051 0.465,-0.153 0.115,-0.101 0.172,-0.236 0.172,-0.404 0,-0.427 -0.233,-0.641 -0.698,-0.641"
         style="fill:#181513;fill-opacity:1;fill-rule:nonzero;stroke:none"
         id="path2876" />
    </g>
    <g
       id="g2878"
       transform="matrix(71.664445,0,0,-71.664445,1259.5027,463.26198)">
      <path
         inkscape:connector-curvature="0"
         d="m 0,0 0,-0.279 0.43,0 0,-0.18 -0.43,0 0,-0.358 0.606,0 0,-0.187 -0.845,0 0,1.191 0.845,0 0,-0.187"
         style="fill:#181513;fill-opacity:1;fill-rule:nonzero;stroke:none"
         id="path2880" />
    </g>
  </g>
</svg>
