<svg id="K-9_copy" data-name="K-9 copy" xmlns="http://www.w3.org/2000/svg" viewBox="0 0 514.71 516.67"><defs><style>.cls-1{fill:#326786;}.cls-2{fill:#bcbcab;}.cls-3{fill:#9bae9e;}.cls-4{fill:#e74125;}.cls-5{fill:#40545b;}</style></defs><title>K-9_App_Icon</title><polygon class="cls-1" points="257.36 276.1 88.27 107 125.04 70.23 257.36 202.54 389.67 70.23 426.45 107 257.36 276.1"/><polygon class="cls-1" points="257.36 289.46 88.27 120.37 125.04 83.59 257.36 215.9 389.67 83.59 426.45 120.37 257.36 289.46"/><path class="cls-2" d="M263.45,87C140.23,87,39.34,237.2,67.21,339.54,82.74,396.61,206.78,430,263.45,430.25,320.12,430,445.76,397,459.7,339.54,484.35,237.91,381.36,87,263.45,87Z" transform="translate(-5.6 -4.33)"/><path class="cls-2" d="M518.36,104.14c-0.66-.93-16.37-23-45.61-52.24C440.56,19.71,421.06,6.65,420.24,6.11A10.67,10.67,0,0,0,406.8,7.45L364.57,49.69a10.67,10.67,0,0,0-.51,14.53c0.64,0.74,16.05,18.45,47,49.38,31.78,31.78,48.71,46.41,49.41,47a10.67,10.67,0,0,0,14.5-.54l42.24-42.24A10.67,10.67,0,0,0,518.36,104.14Z" transform="translate(-5.6 -4.33)"/><path class="cls-2" d="M114.88,113.6c31.78-31.78,46.41-48.71,47-49.41a10.67,10.67,0,0,0-.54-14.5L119.11,7.45a10.67,10.67,0,0,0-13.7-1.17c-0.93.66-23,16.37-52.24,45.61C21,84.08,7.92,103.59,7.38,104.4a10.67,10.67,0,0,0,1.35,13.44L51,160.08a10.67,10.67,0,0,0,14.53.51C66.23,160,83.94,144.54,114.88,113.6Z" transform="translate(-5.6 -4.33)"/><path class="cls-3" d="M374.84,173.26c-49.44-42.95-165.37-43.74-223.35,0C120.55,196.61,100.52,293,130,318,140,326.42,155,330,173.11,335c-16.78,59.19-23.29,141.58,4,168.5,23.87,23.54,148.65,23.08,172.05,0,27.3-26.92,20.8-109.3,4-168.49,18.09-5,33.18-8.6,43.18-17.07C425.81,293,404,198.58,374.84,173.26Z" transform="translate(-5.6 -4.33)"/><path class="cls-4" d="M373.83,305.79c-40.47,32.29-181.27,32.29-221.75,0-24.5-19.55-7.35-94.59,17.92-113.42,35-26.08,150.92-26.08,185.91,0C381.18,211.21,398.34,286.24,373.83,305.79Z" transform="translate(-5.6 -4.33)"/><path class="cls-1" d="M298.57,454.16A91.56,91.56,0,0,0,263,446.39c-18.91,0-34.92,7.44-35.6,7.76a6.88,6.88,0,0,0-3.67,5.9,7.23,7.23,0,0,0,2.93,6.44L260,489a5.16,5.16,0,0,0,5.88,0l33.4-22.5a7.22,7.22,0,0,0,2.93-6.42A6.88,6.88,0,0,0,298.57,454.16Z" transform="translate(-5.6 -4.33)"/><path class="cls-5" d="M355.91,192.37c-17.49-13-55.22-19.56-93-19.56s-75.46,6.52-93,19.56c-25.27,18.83-42.42,93.87-17.92,113.42C172.32,321.94,217.64,330,263,330s90.64-8.07,110.87-24.22C398.34,286.24,381.18,211.21,355.91,192.37Zm-93-1.52c42,0,71.5,8,82.17,16a19.2,19.2,0,0,1,2.16,1.92,10.11,10.11,0,0,0-1.84.73l-82.06,42.62L180.47,209a10.12,10.12,0,0,0-1.51-.62,18.4,18.4,0,0,1,1.83-1.58C191.46,198.88,221,190.85,263,190.85Zm99.62,100.84C347.38,303.82,307.34,312,263,312s-84.42-8.15-99.62-20.28c-1.85-1.48-5.3-8-5.07-22.16,0.25-15.07,4.34-31.07,9.68-43.37,0.89,1.1,90.84,48.17,90.84,48.17a9.92,9.92,0,0,0,9.2,0s89.18-46.71,90.1-47.89c5.28,12.27,9.31,28.14,9.56,43.09C367.88,283.68,364.44,290.21,362.58,291.69Z" transform="translate(-5.6 -4.33)"/></svg>