<?xml version="1.0" encoding="UTF-8"?>
<!-- Generator: Adobe Illustrator 21.0.0, SVG Export Plug-In . SVG Version: 6.00 Build 0)  -->
<svg version="1.1" xmlns="http://www.w3.org/2000/svg" xmlns:xlink="http://www.w3.org/1999/xlink" x="0px" y="0px" viewBox="0 0 150.7 88.1" style="enable-background:new 0 0 150.7 88.1;" xml:space="preserve">
<style type="text/css">
	.st0{display:none;}
	.st1{display:inline;}
	.st2{fill:#FFFFFF;}
	.st3{fill:#0082C3;}
	.st4{fill:url(#SVGID_1_);}
	.st5{fill:url(#SVGID_2_);}
	.st6{fill:url(#SVGID_3_);}
	.st7{fill:url(#SVGID_4_);}
	.st8{fill:url(#SVGID_5_);}
	.st9{fill:url(#SVGID_6_);}
	.st10{fill:url(#SVGID_7_);}
	.st11{fill:url(#SVGID_8_);}
</style>
<g id="White" class="st0">
	<g class="st1">
		<path class="st2" d="M100.3,38.2c-1,0.8-2.5,1.1-4.5,1.1c-2.8,0-5.6-0.4-8.2-1.3c-0.7-0.2-1.2-0.4-1.5-0.4c-0.5,0-0.7,0.4-0.7,1.1    v1.7c0,0.5,0.1,0.9,0.3,1.1c0.2,0.2,0.5,0.5,1,0.7c2.7,1.1,5.7,1.7,9.1,1.7c3.5,0,6.3-0.8,8.5-2.5c2.1-1.7,3.2-3.9,3.2-6.8    c0-2-0.5-3.6-1.6-4.9c-1-1.3-2.7-2.4-5.1-3.3L96,24.7c-1.9-0.7-3.1-1.4-3.8-2c-0.6-0.6-1-1.4-1-2.5c0-2.6,1.9-3.9,5.8-3.9    c2.2,0,4.4,0.3,6.5,1c0.6,0.2,1.1,0.3,1.4,0.3c0.5,0,0.8-0.4,0.8-1.1v-1.6c0-0.5-0.1-0.9-0.3-1.2c-0.2-0.3-0.5-0.5-1-0.6    c-2.5-0.9-5-1.4-7.6-1.4c-3.3,0-5.9,0.8-8,2.4c-2,1.6-3,3.7-3,6.3c0,4,2.2,6.8,6.7,8.4l5.1,1.9c1.6,0.6,2.8,1.2,3.4,1.8    c0.6,0.6,0.9,1.4,0.9,2.3C101.8,36.3,101.3,37.4,100.3,38.2z"/>
		<path class="st2" d="M73.7,13.8v22.5c-2.9,1.9-5.8,2.9-8.7,2.9c-1.8,0-3.2-0.5-4-1.5c-0.8-1-1.3-2.6-1.3-4.8v-19    c0-0.8-0.4-1.2-1.2-1.2H55c-0.8,0-1.2,0.4-1.2,1.2v21c0,2.9,0.8,5.2,2.3,6.8c1.5,1.6,3.7,2.4,6.5,2.4c3.9,0,7.7-1.4,11.5-4.1    l0.4,2.1c0.1,0.4,0.2,0.7,0.5,0.9c0.2,0.2,0.5,0.2,0.9,0.2h2.6c0.8,0,1.2-0.4,1.2-1.2v-28c0-0.8-0.4-1.2-1.2-1.2h-3.5    C74.1,12.6,73.7,13,73.7,13.8z"/>
		<path class="st2" d="M41.5,43.1H45c0.8,0,1.2-0.4,1.2-1.2V20.7c0-2.9-0.7-5.1-2.2-6.7c-1.5-1.6-3.6-2.3-6.4-2.3    c-4,0-7.9,1.4-11.9,4.3c-1.3-2.8-3.8-4.3-7.6-4.3c-3.6,0-7.4,1.3-11.2,4l-0.4-1.9c-0.1-0.4-0.2-0.7-0.5-0.9    c-0.2-0.2-0.5-0.2-0.9-0.2H2.6c-0.8,0-1.2,0.4-1.2,1.2v28c0,0.8,0.4,1.2,1.2,1.2h3.5c0.8,0,1.2-0.4,1.2-1.2V19.2    c2.8-1.8,5.7-2.6,8.8-2.6c1.6,0,2.8,0.5,3.6,1.4c0.8,1,1.1,2.4,1.1,4.4v19.5c0,0.8,0.4,1.2,1.2,1.2h3.5c0.8,0,1.2-0.4,1.2-1.2    V21.1v-1c0-0.3,0-0.6-0.1-0.9c3-1.8,5.9-2.7,8.8-2.7c1.6,0,2.8,0.5,3.6,1.4c0.8,1,1.1,2.4,1.1,4.4v19.5    C40.3,42.7,40.7,43.1,41.5,43.1z"/>
		<path class="st2" d="M133.8,65.6C115.3,73.5,95.3,77.3,77,77.3c-27.1,0-53.3-7.4-74.5-19.8c-0.4-0.2-0.7-0.3-1.1-0.3    c-1.2,0-1.9,1.4-0.6,2.5c19.7,17.8,45.6,28.4,74.5,28.4c20.6,0,44.5-6.5,61-18.6C139,67.5,136.6,64.4,133.8,65.6z"/>
		<path class="st2" d="M133.2,19.4c1.5-1.7,3.9-2.6,7.3-2.6c1.7,0,3.3,0.2,5,0.7c0.4,0.1,0.8,0.2,1,0.2c0.5,0,0.8-0.4,0.8-1.2v-1.6    c0-0.6-0.1-1-0.3-1.2c-0.2-0.2-0.5-0.4-0.9-0.6c-2.1-0.8-4.2-1.1-6.4-1.1c-4.7,0-8.4,1.4-11,4.2c-2.6,2.8-3.9,6.7-3.9,11.8    c0,5.1,1.3,9,3.8,11.7c2.5,2.7,6.1,4.1,10.8,4.1c2.6,0,4.9-0.4,6.8-1.3c0.5-0.2,0.8-0.4,1-0.7c0.2-0.2,0.2-0.6,0.2-1.1V39    c0-0.8-0.3-1.2-0.8-1.2c-0.2,0-0.5,0.1-0.9,0.2c-1.9,0.6-3.7,0.8-5.4,0.8c-3.2,0-5.6-0.9-7.1-2.6c-1.5-1.7-2.3-4.4-2.3-8v-0.8    C131,23.8,131.7,21.1,133.2,19.4z"/>
		<path class="st2" d="M140.8,81.4c8.8-7.4,11.1-22.9,9.3-25.1c-0.9-1.1-4.9-2.1-10-2.1c-5.4,0-11.9,1.1-16.7,4.6    c-1.5,1-1.2,2.4,0.4,2.2c5.3-0.6,17.2-2.1,19.3,0.6c2.1,2.7-2.3,13.8-4.3,18.8C138.2,82,139.5,82.6,140.8,81.4z"/>
		<path class="st2" d="M117.3,12.6h-3.5c-0.8,0-1.2,0.4-1.2,1.2v28c0,0.8,0.4,1.2,1.2,1.2h3.5c0.8,0,1.2-0.4,1.2-1.2v-28    C118.5,13,118.1,12.6,117.3,12.6z"/>
		<path class="st2" d="M118.3,1c-0.7-0.7-1.6-1-2.7-1c-1.2,0-2.1,0.3-2.7,1c-0.7,0.7-1,1.5-1,2.6c0,1.1,0.3,2,1,2.6    c0.7,0.7,1.6,1,2.7,1c1.2,0,2.1-0.3,2.7-1c0.7-0.7,1-1.5,1-2.6C119.3,2.5,119,1.6,118.3,1z"/>
	</g>
</g>
<g id="Squid_Ink">
	<g>
		<path class="st3" d="M100.3,38.2c-1,0.8-2.5,1.1-4.5,1.1c-2.8,0-5.6-0.4-8.2-1.3c-0.7-0.2-1.2-0.4-1.5-0.4c-0.5,0-0.7,0.4-0.7,1.1    v1.7c0,0.5,0.1,0.9,0.3,1.1c0.2,0.2,0.5,0.5,1,0.7c2.7,1.1,5.7,1.7,9.1,1.7c3.5,0,6.3-0.8,8.5-2.5c2.1-1.7,3.2-3.9,3.2-6.8    c0-2-0.5-3.6-1.6-4.9c-1-1.3-2.7-2.4-5.1-3.3L96,24.7c-1.9-0.7-3.1-1.4-3.8-2c-0.6-0.6-1-1.4-1-2.5c0-2.6,1.9-3.9,5.8-3.9    c2.2,0,4.4,0.3,6.5,1c0.6,0.2,1.1,0.3,1.4,0.3c0.5,0,0.8-0.4,0.8-1.1v-1.6c0-0.5-0.1-0.9-0.3-1.2c-0.2-0.3-0.5-0.5-1-0.6    c-2.5-0.9-5-1.4-7.6-1.4c-3.3,0-5.9,0.8-8,2.4c-2,1.6-3,3.7-3,6.3c0,4,2.2,6.8,6.7,8.4l5.1,1.9c1.6,0.6,2.8,1.2,3.4,1.8    c0.6,0.6,0.9,1.4,0.9,2.3C101.8,36.3,101.3,37.4,100.3,38.2z"/>
		<path class="st3" d="M73.7,13.8v22.5c-2.9,1.9-5.8,2.9-8.7,2.9c-1.8,0-3.2-0.5-4-1.5c-0.8-1-1.3-2.6-1.3-4.8v-19    c0-0.8-0.4-1.2-1.2-1.2H55c-0.8,0-1.2,0.4-1.2,1.2v21c0,2.9,0.8,5.2,2.3,6.8c1.5,1.6,3.7,2.4,6.5,2.4c3.9,0,7.7-1.4,11.5-4.1    l0.4,2.1c0.1,0.4,0.2,0.7,0.5,0.9c0.2,0.2,0.5,0.2,0.9,0.2h2.6c0.8,0,1.2-0.4,1.2-1.2v-28c0-0.8-0.4-1.2-1.2-1.2h-3.5    C74.1,12.6,73.7,13,73.7,13.8z"/>
		<path class="st3" d="M41.5,43.1H45c0.8,0,1.2-0.4,1.2-1.2V20.7c0-2.9-0.7-5.1-2.2-6.7c-1.5-1.6-3.6-2.3-6.4-2.3    c-4,0-7.9,1.4-11.9,4.3c-1.3-2.8-3.8-4.3-7.6-4.3c-3.6,0-7.4,1.3-11.2,4l-0.4-1.9c-0.1-0.4-0.2-0.7-0.5-0.9    c-0.2-0.2-0.5-0.2-0.9-0.2H2.6c-0.8,0-1.2,0.4-1.2,1.2v28c0,0.8,0.4,1.2,1.2,1.2h3.5c0.8,0,1.2-0.4,1.2-1.2V19.2    c2.8-1.8,5.7-2.6,8.8-2.6c1.6,0,2.8,0.5,3.6,1.4c0.8,1,1.1,2.4,1.1,4.4v19.5c0,0.8,0.4,1.2,1.2,1.2h3.5c0.8,0,1.2-0.4,1.2-1.2    V21.1v-1c0-0.3,0-0.6-0.1-0.9c3-1.8,5.9-2.7,8.8-2.7c1.6,0,2.8,0.5,3.6,1.4c0.8,1,1.1,2.4,1.1,4.4v19.5    C40.3,42.7,40.7,43.1,41.5,43.1z"/>
		<path class="st3" d="M133.8,65.6C115.3,73.5,95.3,77.3,77,77.3c-27.1,0-53.3-7.4-74.5-19.8c-0.4-0.2-0.7-0.3-1.1-0.3    c-1.2,0-1.9,1.4-0.6,2.5c19.7,17.8,45.6,28.4,74.5,28.4c20.6,0,44.5-6.5,61-18.6C139,67.5,136.6,64.4,133.8,65.6z"/>
		<path class="st3" d="M133.2,19.4c1.5-1.7,3.9-2.6,7.3-2.6c1.7,0,3.3,0.2,5,0.7c0.4,0.1,0.8,0.2,1,0.2c0.5,0,0.8-0.4,0.8-1.2v-1.6    c0-0.6-0.1-1-0.3-1.2c-0.2-0.2-0.5-0.4-0.9-0.6c-2.1-0.8-4.2-1.1-6.4-1.1c-4.7,0-8.4,1.4-11,4.2c-2.6,2.8-3.9,6.7-3.9,11.8    c0,5.1,1.3,9,3.8,11.7c2.5,2.7,6.1,4.1,10.8,4.1c2.6,0,4.9-0.4,6.8-1.3c0.5-0.2,0.8-0.4,1-0.7c0.2-0.2,0.2-0.6,0.2-1.1V39    c0-0.8-0.3-1.2-0.8-1.2c-0.2,0-0.5,0.1-0.9,0.2c-1.9,0.6-3.7,0.8-5.4,0.8c-3.2,0-5.6-0.9-7.1-2.6c-1.5-1.7-2.3-4.4-2.3-8v-0.8    C131,23.8,131.7,21.1,133.2,19.4z"/>
		<path class="st3" d="M140.8,81.4c8.8-7.4,11.1-22.9,9.3-25.1c-0.9-1.1-4.9-2.1-10-2.1c-5.4,0-11.9,1.1-16.7,4.6    c-1.5,1-1.2,2.4,0.4,2.2c5.3-0.6,17.2-2.1,19.3,0.6c2.1,2.7-2.3,13.8-4.3,18.8C138.2,82,139.5,82.6,140.8,81.4z"/>
		<path class="st3" d="M117.3,12.6h-3.5c-0.8,0-1.2,0.4-1.2,1.2v28c0,0.8,0.4,1.2,1.2,1.2h3.5c0.8,0,1.2-0.4,1.2-1.2v-28    C118.5,13,118.1,12.6,117.3,12.6z"/>
		<path class="st3" d="M118.3,1c-0.7-0.7-1.6-1-2.7-1c-1.2,0-2.1,0.3-2.7,1c-0.7,0.7-1,1.5-1,2.6c0,1.1,0.3,2,1,2.6    c0.7,0.7,1.6,1,2.7,1c1.2,0,2.1-0.3,2.7-1c0.7-0.7,1-1.5,1-2.6C119.3,2.5,119,1.6,118.3,1z"/>
	</g>
</g>
<g id="Pantone_Process_Blue" class="st0">
	<g class="st1">
		<path class="st3" d="M100.3,38.2c-1,0.8-2.5,1.1-4.5,1.1c-2.8,0-5.6-0.4-8.2-1.3c-0.7-0.2-1.2-0.4-1.5-0.4c-0.5,0-0.7,0.4-0.7,1.1    v1.7c0,0.5,0.1,0.9,0.3,1.1c0.2,0.2,0.5,0.5,1,0.7c2.7,1.1,5.7,1.7,9.1,1.7c3.5,0,6.3-0.8,8.5-2.5c2.1-1.7,3.2-3.9,3.2-6.8    c0-2-0.5-3.6-1.6-4.9c-1-1.3-2.7-2.4-5.1-3.3L96,24.7c-1.9-0.7-3.1-1.4-3.8-2c-0.6-0.6-1-1.4-1-2.5c0-2.6,1.9-3.9,5.8-3.9    c2.2,0,4.4,0.3,6.5,1c0.6,0.2,1.1,0.3,1.4,0.3c0.5,0,0.8-0.4,0.8-1.1v-1.6c0-0.5-0.1-0.9-0.3-1.2c-0.2-0.3-0.5-0.5-1-0.6    c-2.5-0.9-5-1.4-7.6-1.4c-3.3,0-5.9,0.8-8,2.4c-2,1.6-3,3.7-3,6.3c0,4,2.2,6.8,6.7,8.4l5.1,1.9c1.6,0.6,2.8,1.2,3.4,1.8    c0.6,0.6,0.9,1.4,0.9,2.3C101.8,36.3,101.3,37.4,100.3,38.2z"/>
		<path class="st3" d="M73.7,13.8v22.5c-2.9,1.9-5.8,2.9-8.7,2.9c-1.8,0-3.2-0.5-4-1.5c-0.8-1-1.3-2.6-1.3-4.8v-19    c0-0.8-0.4-1.2-1.2-1.2H55c-0.8,0-1.2,0.4-1.2,1.2v21c0,2.9,0.8,5.2,2.3,6.8c1.5,1.6,3.7,2.4,6.5,2.4c3.9,0,7.7-1.4,11.5-4.1    l0.4,2.1c0.1,0.4,0.2,0.7,0.5,0.9c0.2,0.2,0.5,0.2,0.9,0.2h2.6c0.8,0,1.2-0.4,1.2-1.2v-28c0-0.8-0.4-1.2-1.2-1.2h-3.5    C74.1,12.6,73.7,13,73.7,13.8z"/>
		<path class="st3" d="M41.5,43.1H45c0.8,0,1.2-0.4,1.2-1.2V20.7c0-2.9-0.7-5.1-2.2-6.7c-1.5-1.6-3.6-2.3-6.4-2.3    c-4,0-7.9,1.4-11.9,4.3c-1.3-2.8-3.8-4.3-7.6-4.3c-3.6,0-7.4,1.3-11.2,4l-0.4-1.9c-0.1-0.4-0.2-0.7-0.5-0.9    c-0.2-0.2-0.5-0.2-0.9-0.2H2.6c-0.8,0-1.2,0.4-1.2,1.2v28c0,0.8,0.4,1.2,1.2,1.2h3.5c0.8,0,1.2-0.4,1.2-1.2V19.2    c2.8-1.8,5.7-2.6,8.8-2.6c1.6,0,2.8,0.5,3.6,1.4c0.8,1,1.1,2.4,1.1,4.4v19.5c0,0.8,0.4,1.2,1.2,1.2h3.5c0.8,0,1.2-0.4,1.2-1.2    V21.1v-1c0-0.3,0-0.6-0.1-0.9c3-1.8,5.9-2.7,8.8-2.7c1.6,0,2.8,0.5,3.6,1.4c0.8,1,1.1,2.4,1.1,4.4v19.5    C40.3,42.7,40.7,43.1,41.5,43.1z"/>
		<path class="st3" d="M133.8,65.6C115.3,73.5,95.3,77.3,77,77.3c-27.1,0-53.3-7.4-74.5-19.8c-0.4-0.2-0.7-0.3-1.1-0.3    c-1.2,0-1.9,1.4-0.6,2.5c19.7,17.8,45.6,28.4,74.5,28.4c20.6,0,44.5-6.5,61-18.6C139,67.5,136.6,64.4,133.8,65.6z"/>
		<path class="st3" d="M133.2,19.4c1.5-1.7,3.9-2.6,7.3-2.6c1.7,0,3.3,0.2,5,0.7c0.4,0.1,0.8,0.2,1,0.2c0.5,0,0.8-0.4,0.8-1.2v-1.6    c0-0.6-0.1-1-0.3-1.2c-0.2-0.2-0.5-0.4-0.9-0.6c-2.1-0.8-4.2-1.1-6.4-1.1c-4.7,0-8.4,1.4-11,4.2c-2.6,2.8-3.9,6.7-3.9,11.8    c0,5.1,1.3,9,3.8,11.7c2.5,2.7,6.1,4.1,10.8,4.1c2.6,0,4.9-0.4,6.8-1.3c0.5-0.2,0.8-0.4,1-0.7c0.2-0.2,0.2-0.6,0.2-1.1V39    c0-0.8-0.3-1.2-0.8-1.2c-0.2,0-0.5,0.1-0.9,0.2c-1.9,0.6-3.7,0.8-5.4,0.8c-3.2,0-5.6-0.9-7.1-2.6c-1.5-1.7-2.3-4.4-2.3-8v-0.8    C131,23.8,131.7,21.1,133.2,19.4z"/>
		<path class="st3" d="M140.8,81.4c8.8-7.4,11.1-22.9,9.3-25.1c-0.9-1.1-4.9-2.1-10-2.1c-5.4,0-11.9,1.1-16.7,4.6    c-1.5,1-1.2,2.4,0.4,2.2c5.3-0.6,17.2-2.1,19.3,0.6c2.1,2.7-2.3,13.8-4.3,18.8C138.2,82,139.5,82.6,140.8,81.4z"/>
		<path class="st3" d="M117.3,12.6h-3.5c-0.8,0-1.2,0.4-1.2,1.2v28c0,0.8,0.4,1.2,1.2,1.2h3.5c0.8,0,1.2-0.4,1.2-1.2v-28    C118.5,13,118.1,12.6,117.3,12.6z"/>
		<path class="st3" d="M118.3,1c-0.7-0.7-1.6-1-2.7-1c-1.2,0-2.1,0.3-2.7,1c-0.7,0.7-1,1.5-1,2.6c0,1.1,0.3,2,1,2.6    c0.7,0.7,1.6,1,2.7,1c1.2,0,2.1-0.3,2.7-1c0.7-0.7,1-1.5,1-2.6C119.3,2.5,119,1.6,118.3,1z"/>
	</g>
</g>
<g id="Gradient" class="st0">
	<g class="st1">
		
			<linearGradient id="SVGID_1_" gradientUnits="userSpaceOnUse" x1="-319.1766" y1="352.407" x2="-318.1203" y2="352.407" gradientTransform="matrix(90.9945 -90.9945 -90.9945 -90.9945 61143.043 3115.384)">
			<stop offset="0" style="stop-color:#0D72B9"/>
			<stop offset="0.1954" style="stop-color:#167FC2"/>
			<stop offset="0.6058" style="stop-color:#27A4DD"/>
			<stop offset="0.8873" style="stop-color:#36C3F2"/>
			<stop offset="1" style="stop-color:#36C3F2"/>
		</linearGradient>
		<path class="st4" d="M100.3,38.2c-1,0.8-2.5,1.1-4.5,1.1c-2.8,0-5.6-0.4-8.2-1.3c-0.7-0.2-1.2-0.4-1.5-0.4c-0.5,0-0.7,0.4-0.7,1.1    v1.7c0,0.5,0.1,0.9,0.3,1.1c0.2,0.2,0.5,0.5,1,0.7c2.7,1.1,5.7,1.7,9.1,1.7c3.5,0,6.3-0.8,8.5-2.5c2.1-1.7,3.2-3.9,3.2-6.8    c0-2-0.5-3.6-1.6-4.9c-1-1.3-2.7-2.4-5.1-3.3L96,24.7c-1.9-0.7-3.1-1.4-3.8-2c-0.6-0.6-1-1.4-1-2.5c0-2.6,1.9-3.9,5.8-3.9    c2.2,0,4.4,0.3,6.5,1c0.6,0.2,1.1,0.3,1.4,0.3c0.5,0,0.8-0.4,0.8-1.1v-1.6c0-0.5-0.1-0.9-0.3-1.2c-0.2-0.3-0.5-0.5-1-0.6    c-2.5-0.9-5-1.4-7.6-1.4c-3.3,0-5.9,0.8-8,2.4c-2,1.6-3,3.7-3,6.3c0,4,2.2,6.8,6.7,8.4l5.1,1.9c1.6,0.6,2.8,1.2,3.4,1.8    c0.6,0.6,0.9,1.4,0.9,2.3C101.8,36.3,101.3,37.4,100.3,38.2z"/>
		
			<linearGradient id="SVGID_2_" gradientUnits="userSpaceOnUse" x1="-319.1766" y1="352.5701" x2="-318.1203" y2="352.5701" gradientTransform="matrix(90.9945 -90.9945 -90.9945 -90.9945 61143.043 3115.384)">
			<stop offset="0" style="stop-color:#0D72B9"/>
			<stop offset="0.1954" style="stop-color:#167FC2"/>
			<stop offset="0.6058" style="stop-color:#27A4DD"/>
			<stop offset="0.8873" style="stop-color:#36C3F2"/>
			<stop offset="1" style="stop-color:#36C3F2"/>
		</linearGradient>
		<path class="st5" d="M73.7,13.8v22.5c-2.9,1.9-5.8,2.9-8.7,2.9c-1.8,0-3.2-0.5-4-1.5c-0.8-1-1.3-2.6-1.3-4.8v-19    c0-0.8-0.4-1.2-1.2-1.2H55c-0.8,0-1.2,0.4-1.2,1.2v21c0,2.9,0.8,5.2,2.3,6.8c1.5,1.6,3.7,2.4,6.5,2.4c3.9,0,7.7-1.4,11.5-4.1    l0.4,2.1c0.1,0.4,0.2,0.7,0.5,0.9c0.2,0.2,0.5,0.2,0.9,0.2h2.6c0.8,0,1.2-0.4,1.2-1.2v-28c0-0.8-0.4-1.2-1.2-1.2h-3.5    C74.1,12.6,73.7,13,73.7,13.8z"/>
		
			<linearGradient id="SVGID_3_" gradientUnits="userSpaceOnUse" x1="-319.1766" y1="352.8058" x2="-318.1203" y2="352.8058" gradientTransform="matrix(90.9945 -90.9945 -90.9945 -90.9945 61143.043 3115.384)">
			<stop offset="0" style="stop-color:#0D72B9"/>
			<stop offset="0.1954" style="stop-color:#167FC2"/>
			<stop offset="0.6058" style="stop-color:#27A4DD"/>
			<stop offset="0.8873" style="stop-color:#36C3F2"/>
			<stop offset="1" style="stop-color:#36C3F2"/>
		</linearGradient>
		<path class="st6" d="M41.5,43.1H45c0.8,0,1.2-0.4,1.2-1.2V20.7c0-2.9-0.7-5.1-2.2-6.7c-1.5-1.6-3.6-2.3-6.4-2.3    c-4,0-7.9,1.4-11.9,4.3c-1.3-2.8-3.8-4.3-7.6-4.3c-3.6,0-7.4,1.3-11.2,4l-0.4-1.9c-0.1-0.4-0.2-0.7-0.5-0.9    c-0.2-0.2-0.5-0.2-0.9-0.2H2.6c-0.8,0-1.2,0.4-1.2,1.2v28c0,0.8,0.4,1.2,1.2,1.2h3.5c0.8,0,1.2-0.4,1.2-1.2V19.2    c2.8-1.8,5.7-2.6,8.8-2.6c1.6,0,2.8,0.5,3.6,1.4c0.8,1,1.1,2.4,1.1,4.4v19.5c0,0.8,0.4,1.2,1.2,1.2h3.5c0.8,0,1.2-0.4,1.2-1.2    V21.1v-1c0-0.3,0-0.6-0.1-0.9c3-1.8,5.9-2.7,8.8-2.7c1.6,0,2.8,0.5,3.6,1.4c0.8,1,1.1,2.4,1.1,4.4v19.5    C40.3,42.7,40.7,43.1,41.5,43.1z"/>
		
			<linearGradient id="SVGID_4_" gradientUnits="userSpaceOnUse" x1="-319.1766" y1="352.365" x2="-318.1203" y2="352.365" gradientTransform="matrix(90.9945 -90.9945 -90.9945 -90.9945 61143.043 3115.384)">
			<stop offset="0" style="stop-color:#0D72B9"/>
			<stop offset="0.1954" style="stop-color:#167FC2"/>
			<stop offset="0.6058" style="stop-color:#27A4DD"/>
			<stop offset="0.8873" style="stop-color:#36C3F2"/>
			<stop offset="1" style="stop-color:#36C3F2"/>
		</linearGradient>
		<path class="st7" d="M133.8,65.6C115.3,73.5,95.3,77.3,77,77.3c-27.1,0-53.3-7.4-74.5-19.8c-0.4-0.2-0.7-0.3-1.1-0.3    c-1.2,0-1.9,1.4-0.6,2.5c19.7,17.8,45.6,28.4,74.5,28.4c20.6,0,44.5-6.5,61-18.6C139,67.5,136.6,64.4,133.8,65.6z"/>
		
			<linearGradient id="SVGID_5_" gradientUnits="userSpaceOnUse" x1="-319.1766" y1="352.1724" x2="-318.1203" y2="352.1724" gradientTransform="matrix(90.9945 -90.9945 -90.9945 -90.9945 61143.043 3115.384)">
			<stop offset="0" style="stop-color:#0D72B9"/>
			<stop offset="0.1954" style="stop-color:#167FC2"/>
			<stop offset="0.6058" style="stop-color:#27A4DD"/>
			<stop offset="0.8873" style="stop-color:#36C3F2"/>
			<stop offset="1" style="stop-color:#36C3F2"/>
		</linearGradient>
		<path class="st8" d="M133.2,19.4c1.5-1.7,3.9-2.6,7.3-2.6c1.7,0,3.3,0.2,5,0.7c0.4,0.1,0.8,0.2,1,0.2c0.5,0,0.8-0.4,0.8-1.2v-1.6    c0-0.6-0.1-1-0.3-1.2c-0.2-0.2-0.5-0.4-0.9-0.6c-2.1-0.8-4.2-1.1-6.4-1.1c-4.7,0-8.4,1.4-11,4.2c-2.6,2.8-3.9,6.7-3.9,11.8    c0,5.1,1.3,9,3.8,11.7c2.5,2.7,6.1,4.1,10.8,4.1c2.6,0,4.9-0.4,6.8-1.3c0.5-0.2,0.8-0.4,1-0.7c0.2-0.2,0.2-0.6,0.2-1.1V39    c0-0.8-0.3-1.2-0.8-1.2c-0.2,0-0.5,0.1-0.9,0.2c-1.9,0.6-3.7,0.8-5.4,0.8c-3.2,0-5.6-0.9-7.1-2.6c-1.5-1.7-2.3-4.4-2.3-8v-0.8    C131,23.8,131.7,21.1,133.2,19.4z"/>
		
			<linearGradient id="SVGID_6_" gradientUnits="userSpaceOnUse" x1="-319.1766" y1="351.9783" x2="-318.1203" y2="351.9783" gradientTransform="matrix(90.9945 -90.9945 -90.9945 -90.9945 61143.043 3115.384)">
			<stop offset="0" style="stop-color:#0D72B9"/>
			<stop offset="0.1954" style="stop-color:#167FC2"/>
			<stop offset="0.6058" style="stop-color:#27A4DD"/>
			<stop offset="0.8873" style="stop-color:#36C3F2"/>
			<stop offset="1" style="stop-color:#36C3F2"/>
		</linearGradient>
		<path class="st9" d="M140.8,81.4c8.8-7.4,11.1-22.9,9.3-25.1c-0.9-1.1-4.9-2.1-10-2.1c-5.4,0-11.9,1.1-16.7,4.6    c-1.5,1-1.2,2.4,0.4,2.2c5.3-0.6,17.2-2.1,19.3,0.6c2.1,2.7-2.3,13.8-4.3,18.8C138.2,82,139.5,82.6,140.8,81.4z"/>
		
			<linearGradient id="SVGID_7_" gradientUnits="userSpaceOnUse" x1="-319.1766" y1="352.3017" x2="-318.1203" y2="352.3017" gradientTransform="matrix(90.9945 -90.9945 -90.9945 -90.9945 61143.043 3115.384)">
			<stop offset="0" style="stop-color:#0D72B9"/>
			<stop offset="0.1954" style="stop-color:#167FC2"/>
			<stop offset="0.6058" style="stop-color:#27A4DD"/>
			<stop offset="0.8873" style="stop-color:#36C3F2"/>
			<stop offset="1" style="stop-color:#36C3F2"/>
		</linearGradient>
		<path class="st10" d="M117.3,12.6h-3.5c-0.8,0-1.2,0.4-1.2,1.2v28c0,0.8,0.4,1.2,1.2,1.2h3.5c0.8,0,1.2-0.4,1.2-1.2v-28    C118.5,13,118.1,12.6,117.3,12.6z"/>
		
			<linearGradient id="SVGID_8_" gradientUnits="userSpaceOnUse" x1="-319.1766" y1="352.4347" x2="-318.1203" y2="352.4347" gradientTransform="matrix(90.9945 -90.9945 -90.9945 -90.9945 61143.043 3115.384)">
			<stop offset="0" style="stop-color:#0D72B9"/>
			<stop offset="0.1954" style="stop-color:#167FC2"/>
			<stop offset="0.6058" style="stop-color:#27A4DD"/>
			<stop offset="0.8873" style="stop-color:#36C3F2"/>
			<stop offset="1" style="stop-color:#36C3F2"/>
		</linearGradient>
		<path class="st11" d="M118.3,1c-0.7-0.7-1.6-1-2.7-1c-1.2,0-2.1,0.3-2.7,1c-0.7,0.7-1,1.5-1,2.6c0,1.1,0.3,2,1,2.6    c0.7,0.7,1.6,1,2.7,1c1.2,0,2.1-0.3,2.7-1c0.7-0.7,1-1.5,1-2.6C119.3,2.5,119,1.6,118.3,1z"/>
	</g>
</g>
</svg>